<?xml version="1.0" encoding="UTF-8" standalone="no"?>
<svg
   xmlns:dc="http://purl.org/dc/elements/1.1/"
   xmlns:cc="http://creativecommons.org/ns#"
   xmlns:rdf="http://www.w3.org/1999/02/22-rdf-syntax-ns#"
   xmlns:svg="http://www.w3.org/2000/svg"
   xmlns="http://www.w3.org/2000/svg"
   xmlns:sodipodi="http://sodipodi.sourceforge.net/DTD/sodipodi-0.dtd"
   xmlns:inkscape="http://www.inkscape.org/namespaces/inkscape"
   viewBox="0 0 32 32"
   version="1.1"
   id="svg6"
   sodipodi:docname="security.svg"
   width="32"
   height="32"
   inkscape:version="0.92.3 (2405546, 2018-03-11)">
  <metadata
     id="metadata10">
    <rdf:RDF>
      <cc:Work
         rdf:about="">
        <dc:format>image/svg+xml</dc:format>
        <dc:type
           rdf:resource="http://purl.org/dc/dcmitype/StillImage" />
        <dc:title></dc:title>
      </cc:Work>
    </rdf:RDF>
  </metadata>
  <sodipodi:namedview
     pagecolor="#ffffff"
     bordercolor="#666666"
     borderopacity="1"
     objecttolerance="10"
     gridtolerance="10"
     guidetolerance="10"
     inkscape:pageopacity="0"
     inkscape:pageshadow="2"
     inkscape:window-width="1920"
     inkscape:window-height="1021"
     id="namedview8"
     showgrid="false"
     inkscape:zoom="14.75"
     inkscape:cx="8"
     inkscape:cy="8"
     inkscape:window-x="0"
     inkscape:window-y="30"
     inkscape:window-maximized="1"
     inkscape:current-layer="svg6" />
  <defs
     id="defs3051">
    <style
       type="text/css"
       id="current-color-scheme">
      .ColorScheme-Text {
        color:#eff0f1;
      }
      </style>
  </defs>
  <path
     style="color:#eff0f1;fill:currentColor;fill-opacity:1;stroke:none;stroke-width:2"
     d="M 16,4 C 16,4 13,7.9862786 4,8.986328 4,8.986328 4,22.98715 16,28 28,22.98715 28,8.986328 28,8.986328 19,7.9862786 16,4 16,4 Z m 0,2.0654296 c 2.380493,2.0171774 5.81574,3.3626644 10.268554,4.0400404 -0.241888,2.1678 -0.473812,3.799176 -1.034178,5.375976 -1.177636,3.31365 -2.550714,5.329546 -3.782228,6.779296 C 19.543807,24.50721 17.810788,25.416536 16,26.321288 14.189212,25.416536 12.456191,24.50721 10.547851,22.260742 9.3163374,20.810992 7.94326,18.795096 6.765625,15.481445 6.205258,13.904646 5.973334,12.273269 5.7314456,10.105469 10.18426,9.428093 13.619508,8.082607 16,6.0654296 Z M 16,7.864258 C 13.384763,9.679666 10.446774,10.599076 7.4980464,11.224609 8.8943154,19.147567 11.902172,22.535646 16,24.657226 Z"
     class="ColorScheme-Text"
     id="path4"
     inkscape:connector-curvature="0" />
</svg>
