<?xml version="1.0" encoding="UTF-8" standalone="no"?>
<svg
   xmlns:dc="http://purl.org/dc/elements/1.1/"
   xmlns:cc="http://creativecommons.org/ns#"
   xmlns:rdf="http://www.w3.org/1999/02/22-rdf-syntax-ns#"
   xmlns:svg="http://www.w3.org/2000/svg"
   xmlns="http://www.w3.org/2000/svg"
   xmlns:sodipodi="http://sodipodi.sourceforge.net/DTD/sodipodi-0.dtd"
   xmlns:inkscape="http://www.inkscape.org/namespaces/inkscape"
   viewBox="0 0 32 32"
   version="1.1"
   id="svg6"
   sodipodi:docname="advanced.svg"
   width="32"
   height="32"
   inkscape:version="0.92.3 (2405546, 2018-03-11)">
  <metadata
     id="metadata10">
    <rdf:RDF>
      <cc:Work
         rdf:about="">
        <dc:format>image/svg+xml</dc:format>
        <dc:type
           rdf:resource="http://purl.org/dc/dcmitype/StillImage" />
        <dc:title></dc:title>
      </cc:Work>
    </rdf:RDF>
  </metadata>
  <sodipodi:namedview
     pagecolor="#ffffff"
     bordercolor="#666666"
     borderopacity="1"
     objecttolerance="10"
     gridtolerance="10"
     guidetolerance="10"
     inkscape:pageopacity="0"
     inkscape:pageshadow="2"
     inkscape:window-width="1920"
     inkscape:window-height="1021"
     id="namedview8"
     showgrid="false"
     inkscape:zoom="9.95"
     inkscape:cx="-4.1694915"
     inkscape:cy="18.847458"
     inkscape:window-x="0"
     inkscape:window-y="30"
     inkscape:window-maximized="1"
     inkscape:current-layer="svg6" />
  <defs
     id="defs3051">
    <style
       type="text/css"
       id="current-color-scheme">
      .ColorScheme-Text {
        color:#232627;
      }
      </style>
  </defs>
  <circle
     style="opacity:1;fill:#232627;fill-opacity:1;stroke:none;stroke-width:3.76787686;stroke-linecap:round;stroke-linejoin:round;stroke-miterlimit:4;stroke-dasharray:none;stroke-dashoffset:0;stroke-opacity:1;paint-order:normal"
     id="path833"
     cx="16"
     cy="16"
     r="4" />
  <path
     style="color:#000000;font-style:normal;font-variant:normal;font-weight:normal;font-stretch:normal;font-size:medium;line-height:normal;font-family:sans-serif;font-variant-ligatures:normal;font-variant-position:normal;font-variant-caps:normal;font-variant-numeric:normal;font-variant-alternates:normal;font-feature-settings:normal;text-indent:0;text-align:start;text-decoration:none;text-decoration-line:none;text-decoration-style:solid;text-decoration-color:#000000;letter-spacing:normal;word-spacing:normal;text-transform:none;writing-mode:lr-tb;direction:ltr;text-orientation:mixed;dominant-baseline:auto;baseline-shift:baseline;text-anchor:start;white-space:normal;shape-padding:0;clip-rule:nonzero;display:inline;overflow:visible;visibility:visible;opacity:1;isolation:auto;mix-blend-mode:normal;color-interpolation:sRGB;color-interpolation-filters:linearRGB;solid-color:#000000;solid-opacity:1;vector-effect:none;fill:#232627;fill-opacity:1;fill-rule:nonzero;stroke:none;stroke-width:4.00004768;stroke-linecap:round;stroke-linejoin:round;stroke-miterlimit:4;stroke-dasharray:none;stroke-dashoffset:0;stroke-opacity:1;color-rendering:auto;image-rendering:auto;shape-rendering:auto;text-rendering:auto;enable-background:accumulate"
     d="M 15.189453,4.0035891 C 14.463556,4.0233584 14.31812,4.1287691 14.125,4.4645376 13.935931,4.793283 13.486156,5.8584658 13.148438,6.7751393 12.96087,7.2842333 12.9546,7.290109 12.533203,7.4763278 12.29944,7.5796326 12.048419,7.6638322 11.974609,7.6638322 c -0.07379,0 -0.559927,-0.176484 -1.080078,-0.3906342 C 9.914039,6.8694988 8.8741037,6.5134144 8.6816406,6.5134144 c -0.1572485,0 -2.2041462,1.9973012 -2.2539062,2.1992708 -0.056581,0.2297109 0.1906201,0.9552553 0.7304687,2.1504408 0.250153,0.553827 0.468181,1.055959 0.484375,1.115262 0.016165,0.05933 -0.074878,0.319091 -0.2011719,0.576186 L 7.2109375,13.021381 6.4707031,13.314357 C 5.2614048,13.791749 4.3719739,14.208985 4.1796875,14.390554 L 4,14.56048 v 1.509801 1.511755 l 0.2285156,0.173832 c 0.2760535,0.20981 0.7548307,0.426402 2.0644532,0.933616 l 0.9863281,0.380868 0.2070312,0.476574 0.2050781,0.474621 -0.40625,0.959007 c -0.4165779,0.984247 -0.8144531,2.116712 -0.8144531,2.316461 0,0.156437 0.2783617,0.46446 1.3105469,1.451207 l 0.890625,0.851582 0.375,-0.08008 c 0.2065077,-0.04413 0.9400335,-0.32547 1.628906,-0.625015 0.688863,-0.299534 1.291164,-0.544935 1.339844,-0.544935 0.0487,0 0.290843,0.09232 0.537109,0.205084 L 13,24.759941 l 0.310547,0.783222 c 0.70018,1.762804 1.037861,2.358583 1.369141,2.423885 0.259722,0.0512 2.612567,0.03973 2.800781,-0.01367 0.252655,-0.07168 0.495082,-0.51492 1.078125,-1.97661 l 0.511718,-1.283233 0.417969,-0.17188 c 0.229827,-0.09441 0.476115,-0.171879 0.546875,-0.171879 0.07074,0 0.630132,0.20861 1.242188,0.462902 1.337965,0.555898 1.936099,0.736151 2.128906,0.644547 0.247042,-0.117356 1.999071,-1.853068 2.087891,-2.068408 0.137169,-0.332396 -0.01009,-0.780737 -0.951172,-2.898507 l -0.228516,-0.513684 0.236328,-0.492199 0.238281,-0.492199 1.058594,-0.435557 C 27.06091,18.059634 27.615278,17.785688 27.841797,17.570317 27.996716,17.42329 28,17.380374 28,15.956997 c 0,-1.357574 -0.0098,-1.470294 -0.138672,-1.6016 -0.209452,-0.21342 -0.768588,-0.482809 -1.976562,-0.949241 -0.600914,-0.232031 -1.127905,-0.460476 -1.171875,-0.509778 -0.04392,-0.04929 -0.152978,-0.279346 -0.242188,-0.509777 l -0.162109,-0.417979 0.197265,-0.480481 C 25.224264,9.7411391 25.405776,9.2397865 25.441406,8.8943301 L 25.480469,8.5076023 24.427734,7.4763278 C 23.592811,6.657789 23.33619,6.4451003 23.179688,6.4431002 22.9435,6.4405101 21.934362,6.8166886 20.869141,7.3064019 c -0.426058,0.1958792 -0.823433,0.3574303 -0.882813,0.3574303 -0.05939,0 -0.308901,-0.09348 -0.554687,-0.2070362 C 18.984834,7.2503663 18.985912,7.249977 18.757812,6.6833403 18.264611,5.4582022 17.817884,4.508251 17.626953,4.2750799 L 17.427734,4.0309336 16.130859,4.0074955 c -0.394095,-0.00732 -0.69944,-0.010492 -0.941406,-0.00391 z m 0.443359,2.0000475 c 0.149204,5.763e-4 0.251713,1.64e-5 0.460938,0.00391 l 0.199219,0.00391 c 0.171547,0.3680531 0.382753,0.8550608 0.609375,1.4180024 0.11358,0.2821518 0.175054,0.5972937 0.601562,1.0879164 0.426509,0.4906227 0.86543,0.6502422 1.089844,0.7539242 0.167111,0.077207 0.324026,0.1451609 0.484375,0.2050829 0.08018,0.029961 0.159597,0.057069 0.263672,0.087893 0.104074,0.030823 0.104999,0.099612 0.644531,0.099612 0.460874,0 0.485318,-0.056606 0.570313,-0.08008 0.08499,-0.023474 0.139132,-0.042337 0.191406,-0.060548 0.104547,-0.036422 0.193383,-0.070958 0.292969,-0.1113308 0.199171,-0.080746 0.426232,-0.1797273 0.664062,-0.2890693 0.397512,-0.1827481 0.752851,-0.3240476 1.076172,-0.4511826 0.100875,0.096205 0.113418,0.1023549 0.246094,0.2324274 l 0.246094,0.24024 c -0.04709,0.1203233 -0.06405,0.2369535 -0.617188,1.5820678 a 2.0002,2.0002475 0 0 0 0,0.002 l -0.197266,0.48048 a 2.0002,2.0002475 0 0 0 -0.01563,1.482457 l 0.16211,0.417979 c 0.06276,0.162119 0.127684,0.310477 0.197265,0.457042 0.06958,0.146564 -0.08714,0.09548 0.416016,0.660171 a 2.0002,2.0002475 0 0 0 0.002,0.002 c 0.410603,0.460395 0.448551,0.380032 0.53125,0.427744 0.0827,0.04771 0.138687,0.0737 0.195313,0.101565 0.11325,0.05573 0.221573,0.106219 0.345703,0.160161 0.248258,0.107881 0.548148,0.228824 0.871093,0.353523 0.759942,0.293435 0.702552,0.263924 0.832032,0.316415 0.0017,0.159036 0.0039,0.140463 0.0039,0.369148 0,0.236294 -0.002,0.20015 -0.0039,0.36329 -0.152314,0.07059 -0.132612,0.06784 -0.90625,0.384775 a 2.0002,2.0002475 0 0 0 -0.0039,0.002 l -1.058594,0.435557 a 2.0002,2.0002475 0 0 0 -1.039063,0.97854 L 22.75,18.61331 a 2.0002,2.0002475 0 0 0 -0.002,0.0059 l -0.236328,0.492199 a 2.0002,2.0002475 0 0 0 -0.02539,1.677774 l 0.228516,0.513684 c 0.359543,0.809101 0.497992,1.163128 0.625,1.492224 -0.08413,0.08571 -0.148987,0.155684 -0.238282,0.244145 -0.08808,0.08726 -0.160004,0.151403 -0.246093,0.234382 -0.240009,-0.0879 -0.411708,-0.142892 -0.810547,-0.308601 -0.326436,-0.135626 -0.635404,-0.257664 -0.892578,-0.353525 -0.128588,-0.04793 -0.24199,-0.08725 -0.357422,-0.125003 -0.05772,-0.01888 -0.113464,-0.03873 -0.195313,-0.06055 -0.08185,-0.02182 -0.0641,-0.07617 -0.564453,-0.07617 -0.765255,0 -0.650504,0.09104 -0.814453,0.142582 -0.163949,0.05154 -0.322857,0.110131 -0.492187,0.179692 l -0.417969,0.171879 a 2.0002,2.0002475 0 0 0 -1.097656,1.109401 l -0.511719,1.283233 c -0.165948,0.416031 -0.228805,0.534015 -0.330078,0.759784 -0.09748,0.0011 -0.172991,0.0034 -0.273438,0.0039 -0.145476,7.1e-4 -0.265581,-0.0012 -0.404297,-0.002 -0.13532,-0.280602 -0.272537,-0.559889 -0.523437,-1.191435 v -0.002 l -0.310547,-0.781268 a 2.0002,2.0002475 0 0 0 -1.025391,-1.082058 l -0.447265,-0.205083 a 2.0002,2.0002475 0 0 0 -0.002,0 c -0.160888,-0.07367 -0.3114,-0.138244 -0.460938,-0.195317 -0.07477,-0.02854 -0.146321,-0.05409 -0.242187,-0.08399 -0.09587,-0.0299 -0.02195,-0.107425 -0.666016,-0.107425 -0.423145,0 -0.444343,0.04802 -0.515625,0.06641 -0.07128,0.01838 -0.109073,0.03146 -0.144531,0.04297 -0.07092,0.02302 -0.120933,0.04078 -0.173828,0.06055 -0.10579,0.03954 -0.217585,0.08495 -0.34961,0.138675 -0.264049,0.107456 -0.596391,0.247237 -0.9531248,0.402354 -0.2344861,0.101962 -0.4597214,0.190578 -0.6777343,0.27735 l -0.037109,-0.03516 C 8.9172001,23.06688 8.8604179,23.002047 8.7050781,22.847786 8.8310807,22.503491 8.9721713,22.125572 9.1269531,21.75987 l 0.40625,-0.959008 A 2.0002,2.0002475 0 0 0 9.5273431,19.22856 L 9.3222656,18.753939 a 2.0002,2.0002475 0 0 0 -0.00195,-0.0039 L 9.1132812,18.273459 A 2.0002,2.0002475 0 0 0 8,17.205074 L 7.015625,16.824206 H 7.013675 C 6.1888554,16.504647 6.1930144,16.488861 6,16.398415 v -0.328134 -0.384774 c 0.3281803,-0.148936 0.7141157,-0.317915 1.2050781,-0.511731 a 2.0002,2.0002475 0 0 0 0.00195,0 L 7.9472656,14.8808 A 2.0002,2.0002475 0 0 0 9.0039062,13.906168 L 9.234375,13.43936 a 2.0002,2.0002475 0 0 0 0.00195,-0.0039 c 0.09683,-0.197113 0.1751743,-0.38111 0.2460938,-0.583998 0.03546,-0.101443 0.070911,-0.203369 0.1054687,-0.35743 0.034558,-0.154062 0.2108948,-0.209631 -0.015625,-1.041041 a 2.0002,2.0002475 0 0 0 0,-0.002 C 9.4567372,11.027996 9.4748463,11.170162 9.4414062,11.089695 9.4079663,11.009228 9.3688185,10.915637 9.3222656,10.808438 9.2291598,10.59404 9.1091619,10.323809 8.9804688,10.038888 8.8175459,9.6781895 8.7444133,9.4773084 8.6484375,9.234182 8.7417874,9.1403175 8.8136729,9.0646039 8.9121094,8.9685507 8.9982311,8.8845141 9.062377,8.8277655 9.1464844,8.7478424 c 0.3118151,0.1125451 0.6408733,0.2327742 0.9863276,0.3750089 0.284046,0.1169434 0.556121,0.2222978 0.789063,0.3066478 0.116471,0.042175 0.221035,0.078221 0.333984,0.113284 0.05648,0.017531 0.11183,0.034203 0.195313,0.054689 0.08348,0.020487 0.115584,0.066408 0.523437,0.066408 0.797435,0 0.684635,-0.1008736 0.855469,-0.1582069 0.170835,-0.057333 0.33651,-0.1217948 0.511719,-0.1992235 0.214477,-0.094779 0.648622,-0.2382667 1.089844,-0.7402519 0.441221,-0.5019851 0.498332,-0.8406523 0.59375,-1.0996354 0.227745,-0.618174 0.44642,-1.0944476 0.607421,-1.4629258 z"
     id="path861"
     inkscape:connector-curvature="0" />
</svg>
