<?xml version="1.0" encoding="UTF-8" standalone="no"?>
<svg
   xmlns:dc="http://purl.org/dc/elements/1.1/"
   xmlns:cc="http://creativecommons.org/ns#"
   xmlns:rdf="http://www.w3.org/1999/02/22-rdf-syntax-ns#"
   xmlns:svg="http://www.w3.org/2000/svg"
   xmlns="http://www.w3.org/2000/svg"
   xmlns:sodipodi="http://sodipodi.sourceforge.net/DTD/sodipodi-0.dtd"
   xmlns:inkscape="http://www.inkscape.org/namespaces/inkscape"
   viewBox="0 0 32 32"
   width="32"
   height="32"
   version="1.1"
   id="svg17"
   sodipodi:docname="privacy.svg"
   inkscape:version="0.92.3 (2405546, 2018-03-11)">
  <metadata
     id="metadata21">
    <rdf:RDF>
      <cc:Work
         rdf:about="">
        <dc:format>image/svg+xml</dc:format>
        <dc:type
           rdf:resource="http://purl.org/dc/dcmitype/StillImage" />
        <dc:title></dc:title>
      </cc:Work>
    </rdf:RDF>
  </metadata>
  <sodipodi:namedview
     pagecolor="#ffffff"
     bordercolor="#666666"
     borderopacity="1"
     objecttolerance="10"
     gridtolerance="10"
     guidetolerance="10"
     inkscape:pageopacity="0"
     inkscape:pageshadow="2"
     inkscape:window-width="1920"
     inkscape:window-height="1021"
     id="namedview19"
     showgrid="false"
     inkscape:zoom="14.75"
     inkscape:cx="8"
     inkscape:cy="8"
     inkscape:window-x="0"
     inkscape:window-y="30"
     inkscape:window-maximized="1"
     inkscape:current-layer="svg17" />
  <defs
     id="defs3">
    <style
       type="text/css"
       id="current-color-scheme">
      .ColorScheme-Text {
        color:#232627;
      }
    </style>
  </defs>
  <path
     inkscape:connector-curvature="0"
     class="ColorScheme-Text"
     d="M 9.9999948,4.0000002 7.9999942,11.999998 H 24.000003 L 22.000002,4.0000002 15.999996,5.9999988 Z M 5.9999958,13.999997 3.9999954,16 H 28.000005 l -2.000029,-2.000003 z"
     style="color:#232627;fill:currentColor;fill-opacity:1;stroke:none;stroke-width:2.00000072"
     id="path5" />
  <g
     transform="matrix(1.3333334,0,0,1.3333334,1.9999952,-2.0000007)"
     id="g15">
    <g
       transform="translate(-3.5,2.5)"
       id="g9">
      <path
         inkscape:connector-curvature="0"
         class="ColorScheme-Text"
         d="m 11,15.5 h 6 V 17 h -6 z"
         style="color:#232627;fill:currentColor;fill-opacity:1;stroke:none"
         id="path7" />
    </g>
    <path
       inkscape:connector-curvature="0"
       class="ColorScheme-Text"
       transform="scale(1.5)"
       d="M 3.5,10 A 2.5,2.5 0 0 0 1,12.5 2.5,2.5 0 0 0 3.5,15 2.5,2.5 0 0 0 6,12.5 2.5,2.5 0 0 0 3.5,10 Z m 0,1 A 1.5,1.5 0 0 1 5,12.5 1.5,1.5 0 0 1 3.5,14 1.5,1.5 0 0 1 2,12.5 1.5,1.5 0 0 1 3.5,11 Z"
       style="color:#232627;fill:currentColor;fill-opacity:1;stroke:none"
       id="path11" />
    <path
       inkscape:connector-curvature="0"
       class="ColorScheme-Text"
       d="M 15.75,15 A 3.75,3.75 0 0 0 12,18.75 3.75,3.75 0 0 0 15.75,22.5 3.75,3.75 0 0 0 19.5,18.75 3.75,3.75 0 0 0 15.75,15 Z m 0,1.5 A 2.25,2.25 0 0 1 18,18.75 2.25,2.25 0 0 1 15.75,21 2.25,2.25 0 0 1 13.5,18.75 2.25,2.25 0 0 1 15.75,16.5 Z"
       style="color:#232627;fill:currentColor;fill-opacity:1;stroke:none"
       id="path13" />
  </g>
</svg>
