<?xml version="1.0" encoding="UTF-8" standalone="no"?>
<svg
   xmlns:dc="http://purl.org/dc/elements/1.1/"
   xmlns:cc="http://creativecommons.org/ns#"
   xmlns:rdf="http://www.w3.org/1999/02/22-rdf-syntax-ns#"
   xmlns:svg="http://www.w3.org/2000/svg"
   xmlns="http://www.w3.org/2000/svg"
   xmlns:sodipodi="http://sodipodi.sourceforge.net/DTD/sodipodi-0.dtd"
   xmlns:inkscape="http://www.inkscape.org/namespaces/inkscape"
   id="svg4336"
   width="16"
   height="16"
   version="1.1"
   sodipodi:docname="dot-read.svg"
   inkscape:version="0.92.3 (2405546, 2018-03-11)">
  <metadata
     id="metadata8">
    <rdf:RDF>
      <cc:Work
         rdf:about="">
        <dc:format>image/svg+xml</dc:format>
        <dc:type
           rdf:resource="http://purl.org/dc/dcmitype/StillImage" />
      </cc:Work>
    </rdf:RDF>
  </metadata>
  <defs
     id="defs6" />
  <sodipodi:namedview
     pagecolor="#ffffff"
     bordercolor="#666666"
     borderopacity="1"
     objecttolerance="10"
     gridtolerance="10"
     guidetolerance="10"
     inkscape:pageopacity="0"
     inkscape:pageshadow="2"
     inkscape:window-width="1920"
     inkscape:window-height="1021"
     id="namedview4"
     showgrid="false"
     inkscape:zoom="14.75"
     inkscape:cx="-4.1694915"
     inkscape:cy="8"
     inkscape:window-x="0"
     inkscape:window-y="30"
     inkscape:window-maximized="1"
     inkscape:current-layer="svg4336" />
  <path
     style="opacity:1;fill:#eff0f1;fill-opacity:1;stroke-width:0;stroke-miterlimit:4;stroke-dasharray:none"
     d="M 8 3 C 5.2385763 3 3 5.2385763 3 8 C 3.0000001 10.761424 5.2385763 13 8 13 C 10.761424 13 13 10.761424 13 8 C 13 5.2385761 10.761423 2.9999997 8 3 z M 8 4 C 10.209138 3.9999997 12 5.790861 12 8 C 12 10.209139 10.209138 12 8 12 C 5.7908612 12 4.0000001 10.209139 4 8 C 4 5.7908611 5.7908612 4 8 4 z M 8 5 C 6.3431459 5 5 6.3431459 5 8 C 5.0000001 9.6568539 6.3431459 11 8 11 C 9.6568538 11 11 9.6568539 11 8 C 11 6.3431458 9.6568538 4.9999997 8 5 z "
     id="path4344" />
</svg>
